<svg xmlns="http://www.w3.org/2000/svg" viewBox="0 0 300 400" width="300" height="400" role="img" aria-label="matisse-style child cutout">
  <!-- head (rough, hand-cut circle shape) -->
  <path d="M150 45
           C165 45,175 48,182 58
           C188 65,190 73,189 80
           C189 88,187 95,182 102
           C176 108,168 112,158 114
           C150 115,142 114,134 112
           C126 108,120 102,116 95
           C113 87,112 78,113 70
           C114 60,118 52,125 48
           C132 45,141 44,150 45
           Z" 
        fill="currentColor"/>
  
  <!-- neck -->
  <rect x="140" y="105" width="20" height="15" fill="currentColor"/>
  
  <!-- torso (rough, hand-cut with rounded shoulders) -->
  <path d="M120 120
           C118 122,117 125,117 130
           C116 138,116 145,117 152
           C117 160,117 168,118 175
           C119 183,120 189,123 192
           C128 195,135 196,142 195
           L158 195
           C165 196,172 195,177 192
           C180 189,181 183,182 175
           C183 168,183 160,183 152
           C184 145,184 138,183 130
           C183 125,182 122,180 120
           C175 118,168 117,160 118
           C152 119,145 119,140 118
           C132 117,125 118,120 120
           Z"
        fill="currentColor"/>
  
  <!-- left arm -->
  <path d="M118 120
           C115 120,110 122,105 125
           L80 155
           C75 160,73 165,75 170
           C77 175,82 175,87 172
           L110 150
           L118 140
           Z" 
        fill="currentColor"/>
  
  <!-- right arm -->
  <path d="M182 120
           C185 120,190 122,195 125
           L220 155
           C225 160,227 165,225 170
           C223 175,218 175,213 172
           L190 150
           L182 140
           Z" 
        fill="currentColor"/>
  
  <!-- left leg -->
  <path d="M125 185
           C123 190,121 200,120 210
           L118 240
           L115 280
           C115 290,117 295,123 295
           C129 295,133 290,135 280
           L138 240
           L140 210
           L140 185
           Z" 
        fill="currentColor"/>
  
  <!-- right leg -->
  <path d="M161 185
           L161 210
           L164 240
           L166 280
           C168 290,172 295,178 295
           C184 295,186 290,186 280
           L184 240
           L181 210
           C180 200,178 190,176 185
           Z" 
        fill="currentColor"/>
  
  
  <!-- small heart -->
  <path d="M145 155
           C145 152,147 150,150 152
           C153 150,155 152,155 155
           C155 160,150 165,150 165
           C150 165,145 160,145 155
           Z" 
        fill="#d62626"/>
</svg>